{
  "accessors": [
    {
      "bufferView": 2,
      "componentType": 5126,
      "count": 20582,
      "max": [
        10.708480834960938,
        29.64483642578125,
        35.402618408203125
      ],
      "min": [
        -10.708480834960938,
        -0.11054611206054688,
        -14.429656982421875
      ],
      "type": "VEC3"
    },
    {
      "bufferView": 2,
      "byteOffset": 246984,
      "componentType": 5126,
      "count": 20582,
      "max": [
        0.9999610185623169,
        0.9999868273735046,
        0.999970555305481
      ],
      "min": [
        -0.999983549118042,
        -0.99998939037323,
        -0.9999861717224121
      ],
      "type": "VEC3"
    },
    {
      "bufferView": 3,
      "componentType": 5126,
      "count": 20582,
      "max": [
        0.9999945163726807,
        0.9999775886535645,
        0.9996042847633362,
        1.0
      ],
      "min": [
        -0.9999986886978149,
        -0.9999067783355713,
        -0.9992899894714355,
        -1.0
      ],
      "type": "VEC4"
    },
    {
      "bufferView": 1,
      "componentType": 5126,
      "count": 20582,
      "max": [
        0.9933859705924988,
        0.9919725656509399
      ],
      "min": [
        0.01556643657386303,
        0.006301760673522949
      ],
      "type": "VEC2"
    },
    {
      "bufferView": 1,
      "byteOffset": 164656,
      "componentType": 5126,
      "count": 20582,
      "max": [
        0.9933859705924988,
        0.9919725656509399
      ],
      "min": [
        0.01556643657386303,
        0.006301760673522949
      ],
      "type": "VEC2"
    },
    {
      "bufferView": 1,
      "byteOffset": 329312,
      "componentType": 5126,
      "count": 20582,
      "max": [
        0.9933859705924988,
        0.9919725656509399
      ],
      "min": [
        0.01556643657386303,
        0.006301760673522949
      ],
      "type": "VEC2"
    },
    {
      "bufferView": 1,
      "byteOffset": 493968,
      "componentType": 5126,
      "count": 20582,
      "max": [
        0.9933859705924988,
        0.9919725656509399
      ],
      "min": [
        0.01556643657386303,
        0.006301760673522949
      ],
      "type": "VEC2"
    },
    {
      "bufferView": 1,
      "byteOffset": 658624,
      "componentType": 5126,
      "count": 20582,
      "max": [
        0.9933859705924988,
        0.9919725656509399
      ],
      "min": [
        0.01556643657386303,
        0.006301760673522949
      ],
      "type": "VEC2"
    },
    {
      "bufferView": 0,
      "componentType": 5125,
      "count": 118182,
      "type": "SCALAR"
    }
  ],
  "asset": {
    "extras": {
      "author": "Al-Deezel (https://sketchfab.com/Al-dezel)",
      "license": "CC-BY-4.0 (http://creativecommons.org/licenses/by/4.0/)",
      "source": "https://sketchfab.com/3d-models/high-detailed-elephant-2494fd2a58f449539954aaeb589e55bd",
      "title": "High detailed Elephant"
    },
    "generator": "Sketchfab-15.19.0",
    "version": "2.0"
  },
  "bufferViews": [
    {
      "buffer": 0,
      "byteLength": 472728,
      "name": "floatBufferViews",
      "target": 34963
    },
    {
      "buffer": 0,
      "byteLength": 823280,
      "byteOffset": 472728,
      "byteStride": 8,
      "name": "floatBufferViews",
      "target": 34962
    },
    {
      "buffer": 0,
      "byteLength": 493968,
      "byteOffset": 1296008,
      "byteStride": 12,
      "name": "floatBufferViews",
      "target": 34962
    },
    {
      "buffer": 0,
      "byteLength": 329312,
      "byteOffset": 1789976,
      "byteStride": 16,
      "name": "floatBufferViews",
      "target": 34962
    }
  ],
  "buffers": [
    {
      "byteLength": 2119288,
      "uri": "scene.bin"
    }
  ],
  "extensionsRequired": [
    "KHR_materials_pbrSpecularGlossiness"
  ],
  "extensionsUsed": [
    "KHR_materials_pbrSpecularGlossiness"
  ],
  "images": [
    {
      "uri": "textures/material_0_diffuse.png"
    },
    {
      "uri": "textures/material_0_specularGlossiness.png"
    },
    {
      "uri": "textures/material_0_normal.png"
    },
    {
      "uri": "textures/material_0_occlusion.png"
    }
  ],
  "materials": [
    {
      "doubleSided": true,
      "extensions": {
        "KHR_materials_pbrSpecularGlossiness": {
          "diffuseFactor": [
            1.0,
            1.0,
            1.0,
            1.0
          ],
          "diffuseTexture": {
            "index": 0
          },
          "glossinessFactor": 1.0,
          "specularFactor": [
            1.0,
            1.0,
            1.0
          ],
          "specularGlossinessTexture": {
            "index": 1
          }
        }
      },
      "name": "material_0",
      "normalTexture": {
        "index": 2
      },
      "occlusionTexture": {
        "index": 3
      }
    }
  ],
  "meshes": [
    {
      "name": "Object_0",
      "primitives": [
        {
          "attributes": {
            "NORMAL": 1,
            "POSITION": 0,
            "TANGENT": 2,
            "TEXCOORD_0": 3,
            "TEXCOORD_1": 4,
            "TEXCOORD_2": 5,
            "TEXCOORD_3": 6,
            "TEXCOORD_4": 7
          },
          "indices": 8,
          "material": 0,
          "mode": 4
        }
      ]
    }
  ],
  "nodes": [
    {
      "children": [
        1
      ],
      "matrix": [
        1.0,
        0.0,
        0.0,
        0.0,
        0.0,
        2.220446049250313e-16,
        -1.0,
        0.0,
        0.0,
        1.0,
        2.220446049250313e-16,
        0.0,
        0.0,
        0.0,
        0.0,
        1.0
      ],
      "name": "Sketchfab_model"
    },
    {
      "children": [
        2
      ],
      "name": "root"
    },
    {
      "children": [
        3
      ],
      "matrix": [
        1.0,
        0.0,
        0.0,
        0.0,
        0.0,
        2.220446049250313e-16,
        1.0,
        0.0,
        0.0,
        -1.0,
        2.220446049250313e-16,
        0.0,
        0.0,
        0.0,
        0.0,
        1.0
      ],
      "name": "GLTF_SceneRootNode"
    },
    {
      "children": [
        4
      ],
      "matrix": [
        0.009999999776482582,
        0.0,
        0.0,
        0.0,
        0.0,
        0.009999999776482582,
        0.0,
        0.0,
        0.0,
        0.0,
        0.009999999776482582,
        0.0,
        0.0,
        0.0,
        0.0,
        1.0
      ],
      "name": "RootNode.0_0"
    },
    {
      "children": [
        5
      ],
      "name": "elephant.1_1"
    },
    {
      "mesh": 0,
      "name": "Object_5"
    }
  ],
  "samplers": [
    {
      "magFilter": 9729,
      "minFilter": 9987,
      "wrapS": 10497,
      "wrapT": 10497
    }
  ],
  "scene": 0,
  "scenes": [
    {
      "name": "Sketchfab_Scene",
      "nodes": [
        0
      ]
    }
  ],
  "textures": [
    {
      "sampler": 0,
      "source": 0
    },
    {
      "sampler": 0,
      "source": 1
    },
    {
      "sampler": 0,
      "source": 2
    },
    {
      "sampler": 0,
      "source": 3
    }
  ]
}
